# xmcd
# Track frame offsets:
# 150
# 25291
# 37596
# 53589
# 67257
# 96280
# 118470
# 132594
# 152277
# 166225
# 181263
#
# Disc length: 2705 seconds
# Revision: 0
# Processed by: cddbd v1.5.2PL0 Copyright (c) Steve Scherf et al.
# Submitted via: VisiTrax 2.10.0.248 - For more info visit www.synapsa.com
#
DISCID=8e0a8f0b
DTITLE=Willie Nelson - Songbird
DYEAR=2007
DGENRE=Country
TTITLE0=Rainy Day Blues
TTITLE1=Songbird
TTITLE2=Blue Hotel
TTITLE3=Back To Earth
TTITLE4=Stella Blue
TTITLE5=Hallelujah
TTITLE6=$1000 Wedding
TTITLE7=We Don't Run
TTITLE8=Yours Love
TTITLE9=Sad Songs And Waltzes
TTITLE10=Amazing Grace
EXTD=
EXTT0=
EXTT1=
EXTT2=
EXTT3=
EXTT4=
EXTT5=
EXTT6=
EXTT7=
EXTT8=
EXTT9=
EXTT10=
PLAYORDER=
